<?xml version="1.0" encoding="utf-8"?>
<!-- Generator: Adobe Illustrator 27.1.1, SVG Export Plug-In . SVG Version: 6.00 Build 0)  -->
<svg version="1.1" id="Layer_2_00000104689144352602957410000014012015822605810082_"
	 xmlns="http://www.w3.org/2000/svg" xmlns:xlink="http://www.w3.org/1999/xlink" x="0px" y="0px" viewBox="0 0 376.8 62.5"
	 style="enable-background:new 0 0 376.8 62.5;" xml:space="preserve">
<style type="text/css">
	.st0{fill:#39444E;}
	.st1{fill:url(#SVGID_1_);}
</style>
<g id="Layer_1-2">
	<g>
		<path class="st0" d="M325.7,11.9v36.7h-6.2V43c-1.3,1.9-3.1,3.4-5.2,4.4c-2.2,1-4.5,1.6-7.1,1.6c-4.8,0-8.6-1.3-11.4-4
			s-4.2-6.7-4.2-12V11.9h6.6v20.4c0,3.6,0.8,6.2,2.5,8.1s4.1,2.7,7.2,2.7c3.5,0,6.2-1.1,8.2-3.2c2-2.1,3-5.1,3-9v-19H325.7
			L325.7,11.9z M361.1,15.6c-2.7-2.7-6.4-4.1-11-4.1c-2.9,0-5.4,0.5-7.7,1.5c-2.3,1-4,2.5-5.4,4.4v-5.6h-6.3V49h6.6V29.9
			c0-4,1-7,3.1-9.1c2-2.1,4.9-3.2,8.4-3.2c3.1,0,5.6,0.9,7.2,2.7s2.5,4.5,2.5,8.1V49h6.6V27.6C365.1,22.4,363.8,18.4,361.1,15.6
			L361.1,15.6z M100.6,19.1c-6.3,0-11.5,5.1-11.5,11.5s5.2,11.5,11.5,11.5s11.5-5.2,11.5-11.5S107,19.1,100.6,19.1z M232.6,19.1
			c-6.4,0-11.5,5.1-11.5,11.5s5.1,11.5,11.5,11.5s11.5-5.2,11.5-11.5S239,19.1,232.6,19.1z M58.6,19.1c-6.3,0-11.5,5.1-11.5,11.5
			s5.2,11.5,11.5,11.5S70.1,37,70.1,30.6S65,19.1,58.6,19.1z M157.5,43.2c-1.9,0-2.9-0.2-3.9-1.2s-1.5-2.6-1.5-4.5V17.7h10.6v-5.4
			h-10.6v-8h-6.7v33.4c0,3.7,1,6.5,3.1,8.5s4.9,3,8.6,3c1.5,0,3-0.2,4.5-0.7s2.6-1.1,3.6-1.9l-2.7-5.3
			C161,42.4,159.6,43.2,157.5,43.2L157.5,43.2z M77.6,0.1v49h-7v-4.4c-3.2,2.8-7.4,4.4-12,4.4c-10.2,0-18.5-8.3-18.5-18.5
			s8.3-18.5,18.5-18.5c4.6,0,8.8,1.7,12,4.4V0.1H77.6z M119.1,30.6c0,10.2-8.3,18.5-18.5,18.5c-4.6,0-8.8-1.7-12-4.4v16.4h-7v-49h7
			v4.4c3.2-2.8,7.4-4.4,12-4.4C110.8,12.1,119.1,20.4,119.1,30.6z M251.6,12.1v37h-7v-4.4c-3.2,2.8-7.4,4.4-12,4.4
			c-10.2,0-18.5-8.3-18.5-18.5s8.3-18.5,18.5-18.5c4.6,0,8.8,1.7,12,4.4v-4.4C244.6,12.1,251.6,12.1,251.6,12.1z M283.2,37.7
			c-2.1,2.9-5.5,4.8-9.3,4.8c-6.4,0-11.5-5.2-11.5-11.5s5.1-11.5,11.5-11.5c3.7,0,7,1.8,9.1,4.5l5.5-4.3c-3.4-4.4-8.7-7.2-14.6-7.2
			c-10.2,0-18.5,8.3-18.5,18.5s8.3,18.5,18.5,18.5c6.2,0,11.7-3,15-7.7L283.2,37.7L283.2,37.7z M277.6,11l11-8h-8l-6.5,4.6L267.6,3
			h-8l11,8H277.6z M133.6,13c-2.5,0.8-4.3,2.3-5,3.4v-4.2h-7v37h7V30c0.6-6.2,5-8.8,5-8.8c2-2,7.7-2.8,8.1-2.8v-6.4
			C138.5,11.9,136.6,12,133.6,13z M174.8,7h-7V0h7V7z M167.8,49h7V12h-7V49z M376.8,7h-7V0h7V7z M369.8,49h7V12h-7V49z M205.5,12.9
			c-2.5,0.8-4.3,2.3-5,3.3V12h-7v37h7V29.8c0.6-6.2,5-8.8,5-8.8c2-2,7.7-2.8,8.1-2.8v-6.4C210.3,11.8,208.5,11.9,205.5,12.9
			L205.5,12.9z"/>
		
			<linearGradient id="SVGID_1_" gradientUnits="userSpaceOnUse" x1="-4.995170e-04" y1="26.5456" x2="37.0013" y2="26.5456" gradientTransform="matrix(1 0 0 -1 0 64)">
			<stop  offset="0" style="stop-color:#FFFFFF"/>
			<stop  offset="0" style="stop-color:#A282C7"/>
			<stop  offset="0.5" style="stop-color:#F3ECAE"/>
			<stop  offset="1" style="stop-color:#3A58AE"/>
		</linearGradient>
		<path class="st1" d="M23.7,20.6c-5.7-2.9-12.6-0.6-15.5,5c-2.9,5.7-0.6,12.6,5,15.5c5.7,2.9,12.6,0.6,15.5-5S29.4,23.5,23.7,20.6z
			 M35,39.3c-4,7.9-12.9,11.6-21.1,9.5l-7,13.8l-6.2-3.2l6.9-13.6C0.4,40.5-2.2,30.7,2,22.5c4.6-9.1,15.8-12.7,24.9-8.1
			S39.6,30.2,35,39.3L35,39.3z"/>
	</g>
</g>
</svg>
