<svg xmlns="http://www.w3.org/2000/svg" viewBox="0 0 95.04 95.14">
  <path d="M29.77 45.52v-4.75H51.5v4.75H29.77Zm0 7.6v-4.75H51.5v4.75H29.77Zm19.46 10.77c-3.21 0-5.99-.72-8.33-2.16a14.63 14.63 0 0 1-5.45-5.99 20.26 20.26 0 0 1-2.06-8.83c.08-3.41.76-6.39 2.06-8.93a14.48 14.48 0 0 1 5.45-5.93 15.82 15.82 0 0 1 8.33-2.12c1.61 0 3.16.2 4.65.61s2.86 1.02 4.13 1.83l-3.26 5.07c-.77-.59-1.63-1.03-2.59-1.32s-1.94-.44-2.93-.44c-2.08 0-3.81.47-5.17 1.41s-2.39 2.26-3.08 3.95a16.2 16.2 0 0 0-1.08 5.86c.03 2.25.4 4.22 1.1 5.91.7 1.69 1.74 3 3.11 3.93a8.67 8.67 0 0 0 5.11 1.35c2.1.05 3.95-.53 5.57-1.72L58 61.39a15.09 15.09 0 0 1-4.17 1.87c-1.5.42-3.04.62-4.61.62Z"/>
  <circle cx="47.52" cy="47.62" r="26" fill="none" stroke="#000" stroke-miterlimit="10" stroke-width="3"/>
  <path d="M72.12 27.02c.6.6 1.5.6 2.1 0l11.4-11.4 3.2 3.1c1.5 1.5 4.1.6 4.4-1.5l1.8-14.3c.2-1.7-1.2-3.1-2.9-2.9l-14.3 1.9c-2.1.3-3 2.9-1.5 4.4l3.2 3.2-11.4 11.3c-.6.6-.6 1.5 0 2.1l4 4.1Zm-49.2 41.2c-.6-.6-1.5-.6-2.1 0l-11.4 11.4-3.1-3.1c-1.5-1.5-4.1-.6-4.4 1.5l-1.9 14.2c-.2 1.7 1.2 3.1 2.9 2.9l14.3-1.8c2.1-.3 3-2.9 1.5-4.4l-3.2-3.2 11.3-11.3c.6-.6.6-1.5 0-2.1l-3.9-4.1Zm65.9 8.2-3.2 3.2-11.3-11.4c-.6-.6-1.5-.6-2.1 0l-4 4c-.6.6-.6 1.5 0 2.1l11.3 11.4-3.2 3.1c-1.5 1.5-.6 4.1 1.5 4.4l14.3 1.8c1.7.2 3.1-1.2 2.9-2.9l-1.8-14.3c-.3-2-2.9-2.9-4.4-1.4Zm-82.6-57.6 3.1-3.2 11.3 11.3c.6.6 1.5.6 2.1 0l4-4c.6-.6.6-1.5 0-2.1l-11.2-11.3 3.2-3.1c1.5-1.5.6-4.1-1.5-4.4L2.92.12c-1.7-.2-3.1 1.2-2.9 2.9l1.8 14.3c.3 2.1 2.9 3 4.4 1.5Z"/>
</svg>
