<svg xmlns="http://www.w3.org/2000/svg" viewBox="0 0 64.02 9">
  <path fill="#39444e" d="M56.95 8.32V.68l7.07 3.82-7.07 3.82z"/>
  <path fill="none" stroke="#39444e" stroke-width="2" d="M0 1c5.04 0 5.04 7 10.08 7s5.03-7 10.07-7m0 0c5.04 0 5.04 7 10.08 7s5.04-7 10.08-7"/>
  <path fill="#39444e" d="M50.38 9c-3.03 0-4.53-2.08-5.85-3.92C43.34 3.43 42.31 2 40.3 2V0c3.03 0 4.53 2.08 5.85 3.92C47.34 5.58 48.37 7 50.38 7s2.63-1.4 3.38-2.24c1.24-1.24 1.79-1.26 3.2-1.27 0 .92.68 1.4 0 2.01-.84 0-1.42-.15-2.56 1.41-.76.76-1.47 2.08-4.01 2.08Z"/>
</svg>
