<svg xmlns="http://www.w3.org/2000/svg" viewBox="0 0 466.32 95.44">
  <defs>
    <linearGradient id="a" x1="0" x2="70.29" y1="643.78" y2="643.78" gradientTransform="translate(0 -596)" gradientUnits="userSpaceOnUse">
      <stop offset="0" stop-color="#fff"/>
      <stop offset="0" stop-color="#a282c7"/>
      <stop offset=".5" stop-color="#f3ecae"/>
      <stop offset="1" stop-color="#3a58ae"/>
    </linearGradient>
  </defs>
  <g fill="#39444e">
    <path d="M415.26 11.88v36.71h-6.22v-5.54a13.3 13.3 0 0 1-5.23 4.4 16.17 16.17 0 0 1-7.08 1.56c-4.83 0-8.64-1.35-11.42-4.05s-4.17-6.68-4.17-11.95V11.88h6.56v20.36c0 3.56.84 6.25 2.53 8.07s4.1 2.74 7.25 2.74c3.46 0 6.2-1.06 8.21-3.19 2-2.12 3.01-5.13 3.01-9V11.88h6.56Zm35.32 3.76c-2.71-2.73-6.37-4.1-10.98-4.1-2.87 0-5.44.52-7.69 1.54a12.84 12.84 0 0 0-5.37 4.41v-5.6h-6.29V49h6.56V29.88c0-3.97 1.03-7.01 3.08-9.14 2.05-2.12 4.85-3.19 8.41-3.19 3.15 0 5.56.91 7.25 2.73s2.53 4.53 2.53 8.12v20.59h6.56V27.63c0-5.28-1.36-9.28-4.07-12.01v.02Zm-260.44 3.48a11.5 11.5 0 1 0 0 23 11.5 11.5 0 0 0 0-23Zm132 0a11.5 11.5 0 1 0 0 23 11.5 11.5 0 0 0 0-23Zm-174 0a11.5 11.5 0 1 0 0 23 11.5 11.5 0 0 0 0-23Zm98.91 24.09c-1.86 0-2.94-.18-3.94-1.23s-1.5-2.56-1.5-4.53V17.73h10.59V12.3h-10.59V4.33h-6.69v33.39c0 3.66 1.02 6.48 3.06 8.45s4.92 2.95 8.64 2.95c1.53 0 3.02-.22 4.46-.65s2.65-1.06 3.62-1.89l-2.69-5.34c-1.44 1.15-2.93 1.97-4.97 1.97h.01ZM167.13.11v49h-7v-4.44a18.5 18.5 0 1 1 0-28.12V.11h7Zm41.5 30.5a18.5 18.5 0 0 1-30.5 14.06v16.44h-7v-49h7v4.44a18.5 18.5 0 0 1 30.5 14.06Zm132.5-18.5v37h-7v-4.44a18.5 18.5 0 1 1 0-28.12v-4.44h7Zm31.62 25.55a11.5 11.5 0 1 1-.24-13.72l5.54-4.27a18.5 18.5 0 1 0 .39 22.07l-5.68-4.08h-.01ZM367.13 11l11-8h-8l-6.5 4.64-6.5-4.64h-8l11 8h7Zm-144 1.99c-2.48.82-4.26 2.3-5 3.35v-4.23h-7v37h7V29.95c.56-6.17 5-8.84 5-8.84 1.96-1.97 7.73-2.82 8.1-2.78v-6.39c-3.25 0-5.1.06-8.1 1.05ZM264.32 7h-7V0h7v7Zm-7 42h7V12h-7v37Zm209-42h-7V0h7v7Zm-7 42h7V12h-7v37ZM295 12.86c-2.48.82-4.26 2.3-5 3.35v-4.23h-7v37h7V29.82c.56-6.17 5-8.84 5-8.84 1.96-1.97 7.73-2.82 8.1-2.78v-6.39c-3.25 0-5.1.06-8.1 1.05Z"/>
    <path d="M109.65 12.14a18.5 18.5 0 1 0 0 37 18.5 18.5 0 0 0 0-37Zm0 30a11.5 11.5 0 1 1 0-23 11.5 11.5 0 0 1 0 23Z"/>
  </g>
  <path fill="url(#a)" d="M45.04 15.68a21.95 21.95 0 0 0-29.44 9.5 21.95 21.95 0 0 0 9.5 29.44 21.95 21.95 0 0 0 29.44-9.5 21.84 21.84 0 0 0-9.5-29.44ZM66.5 51.19c-7.6 15-24.5 22.03-40.07 18.04L13.14 95.44 1.37 89.36l13.1-25.83C.79 53.47-4.15 34.86 3.83 19.29c8.73-17.28 30-24.12 47.28-15.38S75.23 33.92 66.49 51.2Z"/>
</svg>
